<svg width="212" height="239" viewBox="0 0 212 239" fill="none" xmlns="http://www.w3.org/2000/svg">
<g filter="url(#filter0_d_1109_1075)">
<path d="M20 0H192V209L104.5 181L20 209V0Z" fill="#2B262F"/>
</g>
<g clip-path="url(#clip0_1109_1075)">
<path d="M47.5536 113.992L47.5695 113.966H47.2079V113.974L45.678 116.502L44.1495 113.974V113.966H43.7681L43.784 113.992L45.5058 116.833V118.34H45.8516V116.833L47.5536 113.992ZM54.159 113.983V113.966H53.8133V116.469C53.8455 116.898 53.7168 117.324 53.453 117.661C53.1686 117.909 52.8061 118.045 52.4312 118.045C52.0562 118.045 51.6937 117.909 51.4093 117.661C51.1439 117.324 51.0141 116.898 51.0464 116.469V113.966H50.7007V116.481C50.6674 116.995 50.8327 117.501 51.1616 117.893C51.514 118.201 51.9632 118.37 52.4279 118.37C52.8925 118.37 53.3417 118.201 53.6941 117.893C54.0244 117.502 54.1908 116.995 54.1577 116.481L54.159 113.983ZM61.4148 118.339H61.4479L61.428 118.31L60.3684 116.812C60.655 116.729 60.9086 116.557 61.0929 116.32C61.2741 116.065 61.3673 115.757 61.3578 115.444C61.3666 115.239 61.3294 115.034 61.2491 114.846C61.1688 114.657 61.0475 114.49 60.8943 114.356C60.5277 114.078 60.0768 113.939 59.6201 113.964H58.0717V118.337H58.4174V116.918H59.6201C59.7561 116.918 59.892 116.908 60.0267 116.888L61.04 118.33V118.339H61.4029H61.4148ZM64.9712 118.321V118.339H65.3169V113.966H64.9712V118.321ZM69.2719 118.321V118.339H69.6176V113.966H69.2719V118.321ZM58.4227 116.605V114.284H59.6254C59.9943 114.26 60.3602 114.367 60.6598 114.587C60.7715 114.699 60.8601 114.832 60.9206 114.979C60.9812 115.126 61.0123 115.283 61.0123 115.442C61.0123 115.602 60.9812 115.759 60.9206 115.906C60.8601 116.053 60.7715 116.186 60.6598 116.298C60.3609 116.52 59.9948 116.628 59.6254 116.603L58.4227 116.605Z" fill="white" stroke="white" stroke-width="0.2"/>
<path d="M140.3 118.328H140.722L140.697 118.3L138.702 115.96L140.567 114.015L140.595 113.986H140.17L137.537 116.724V113.992H137.192V118.336H137.537V117.193L138.476 116.22L140.3 118.328ZM154.393 113.991H154.382V114.002L152.674 117.868L150.965 114.002V113.991H150.586L150.597 114.015L152.497 118.32V118.331H152.83V118.32L154.731 114.015L154.741 113.991H154.391H154.393ZM160.941 118.324V118.335H161.314L161.302 118.31L159.34 114.006V113.995H159.005V114.006L157.043 118.31L157.033 118.335H157.405V118.324L157.943 117.123H160.394L160.941 118.324ZM164.547 118.317V118.335H167.349V118.017H164.895V113.992H164.549V118.318L164.547 118.317ZM145.648 118.365C146.074 118.353 146.487 118.212 146.835 117.962C147.184 117.713 147.452 117.364 147.606 116.96C147.76 116.557 147.794 116.116 147.703 115.693C147.612 115.27 147.4 114.883 147.094 114.582C146.788 114.28 146.402 114.077 145.982 113.997C145.563 113.918 145.131 113.965 144.738 114.134C144.345 114.303 144.01 114.585 143.775 114.946C143.539 115.307 143.414 115.731 143.414 116.163C143.411 116.459 143.467 116.752 143.579 117.025C143.691 117.298 143.857 117.545 144.066 117.751C144.275 117.957 144.523 118.117 144.795 118.223C145.067 118.328 145.357 118.376 145.648 118.364V118.365ZM145.648 118.041C145.283 118.035 144.927 117.92 144.626 117.71C144.325 117.499 144.092 117.203 143.956 116.858C143.82 116.514 143.787 116.136 143.862 115.773C143.937 115.41 144.116 115.077 144.376 114.816C144.637 114.556 144.967 114.38 145.326 114.309C145.685 114.239 146.056 114.278 146.394 114.421C146.731 114.565 147.019 114.806 147.221 115.115C147.424 115.424 147.532 115.787 147.532 116.158C147.536 116.409 147.49 116.658 147.397 116.891C147.303 117.123 147.164 117.334 146.988 117.51C146.812 117.686 146.602 117.824 146.372 117.915C146.142 118.006 145.895 118.049 145.648 118.04V118.041ZM160.266 116.823H158.078L159.166 114.401L160.266 116.823Z" fill="white" stroke="white" stroke-width="0.2"/>
<path d="M73.252 55.1181C73.252 55.223 73.0453 57.3308 73.0453 57.5393C73.0346 57.6193 72.9983 57.6935 72.942 57.7505H72.8387C72.2669 57.6376 71.6742 57.7507 71.1817 58.0666C70.4448 58.5751 69.9345 59.3576 69.761 60.2451C69.5875 61.1325 69.7648 62.0536 70.2546 62.8095C70.5923 63.2159 71.0707 63.4752 71.5912 63.534C72.1117 63.5928 72.6345 63.4466 73.052 63.1256C73.8035 62.5663 74.3791 61.7977 74.709 60.9128C74.709 60.8079 74.709 60.8079 74.8123 60.8079H75.0189C75.2255 60.8079 76.5726 61.4401 76.6759 61.4401C76.6895 61.44 76.703 61.4426 76.7156 61.4478C76.7282 61.453 76.7397 61.4607 76.7493 61.4705C76.759 61.4802 76.7666 61.4919 76.7717 61.5047C76.7768 61.5175 76.7794 61.5312 76.7792 61.545V61.65C76.3519 63.1161 75.3885 64.3607 74.0864 65.1284C72.0149 66.6081 69.0108 67.2362 67.1459 65.0235C65.1776 62.6023 66.0068 58.1728 69.2174 55.9588C69.7626 55.5507 70.3823 55.2567 71.0403 55.0939C71.6984 54.9311 72.3817 54.9027 73.0506 55.0105C73.1487 55.0132 73.252 55.0132 73.252 55.1181Z" fill="white"/>
<path d="M87.3411 57.8581C86.5849 58.1809 85.8573 58.5688 85.1662 59.0175H84.855C84.4404 58.5965 84.3371 58.3853 83.9278 57.9643C83.8245 57.8594 83.7212 57.8594 83.5132 57.9643C82.5827 58.394 81.6826 58.8884 80.8191 59.444C80.7158 59.5489 80.6125 59.6551 80.6125 59.7601V61.2397C80.6125 61.3446 80.5092 61.4509 80.4045 61.5558C79.4774 61.8719 78.9542 62.0831 77.9184 62.3992C77.8151 62.3992 77.7104 62.3992 77.7104 62.2943V62.1893C77.3816 58.651 77.3126 55.0928 77.5038 51.5441C77.5086 51.4618 77.5429 51.3842 77.6002 51.3259C77.6576 51.2676 77.7341 51.2328 77.8151 51.228C79.1254 50.61 80.475 50.082 81.8549 49.6475C81.9582 49.5425 82.1662 49.6475 82.2695 49.7524C83.8232 52.3875 86.1027 55.6548 87.4497 57.6576C87.549 57.7531 87.4457 57.8581 87.3411 57.8581ZM82.0576 55.9614C81.5397 55.3292 81.3317 55.0131 80.8138 54.3809C80.8138 54.3809 80.7105 54.276 80.7105 54.3809L80.6072 54.4858C80.5039 55.4342 80.5039 55.8565 80.3992 56.6986V56.8035C80.3992 56.9084 80.5026 56.9084 80.6072 56.8035C81.0411 56.6354 81.4573 56.4236 81.8496 56.1713C82.0589 56.1713 82.0589 56.0664 82.0589 55.9655L82.0576 55.9614Z" fill="white"/>
<path d="M94.2828 48.2674C94.2828 48.4785 94.0762 48.4785 93.9716 48.4785C93.1224 48.6466 92.2902 48.8933 91.4854 49.2156C91.0708 49.638 92.4126 55.4341 92.6245 56.3824C92.6245 56.4873 92.5212 56.5936 92.4179 56.6985C91.5887 56.9097 90.7609 57.2258 89.9318 57.437C89.7251 57.5419 89.6205 57.3321 89.5172 57.2258C88.8959 55.0131 88.4814 52.6941 87.8602 50.4801C87.7568 50.2689 87.7569 50.2689 87.4456 50.3752C86.3065 50.6913 86.0985 50.9024 84.9594 51.2185C84.8561 51.2185 84.6482 51.2185 84.6482 51.1136C84.4416 50.4814 84.3369 49.7429 84.027 49.0058C83.9237 48.9009 84.1303 48.7946 84.3382 48.6897C86.7224 47.8463 88.4814 47.319 90.9675 46.6868C92.0033 46.3707 92.9358 46.1595 93.9716 45.9497C94.0749 45.9497 94.1795 45.9497 94.1795 46.0546C94.317 46.7835 94.3518 47.5285 94.2828 48.2674Z" fill="white"/>
<path d="M104.544 54.697C102.064 54.8691 99.6034 55.257 97.1888 55.8565C96.9822 55.8565 96.9822 55.7516 96.8776 55.6453C96.4921 54.2646 96.2149 52.855 96.0484 51.4297C95.7518 49.6525 95.613 47.8518 95.6339 46.0493C95.6386 45.967 95.6729 45.8894 95.7303 45.8311C95.7877 45.7728 95.8641 45.738 95.9451 45.7332C98.6211 45.3477 101.322 45.1714 104.025 45.2059C104.231 45.2059 104.336 45.3108 104.336 45.4171C104.336 45.8381 104.128 46.6815 104.128 47.1039C104.106 47.1783 104.066 47.246 104.012 47.3012C103.958 47.3563 103.891 47.3971 103.818 47.42C102.264 47.5249 101.434 47.6311 99.8816 47.841C99.675 47.841 99.5704 48.0522 99.467 48.1571C99.467 48.3683 99.3637 49.1054 99.3637 49.4215C99.3637 49.5264 99.4671 49.6327 99.675 49.6327C101.125 49.5277 102.472 49.2117 103.923 49.2117C104.129 49.2117 104.234 49.3166 104.234 49.4228V50.9025C104.229 50.9847 104.195 51.0624 104.138 51.1206C104.08 51.1789 104.004 51.2138 103.923 51.2186C102.266 51.4297 101.437 51.5347 99.8829 51.8508C99.7876 51.9002 99.7079 51.9758 99.6528 52.0691C99.5978 52.1623 99.5697 52.2694 99.5717 52.378C99.5717 52.5892 99.675 52.9053 99.9863 52.7991C101.748 52.5879 102.68 52.483 104.544 52.378C104.647 52.378 104.751 52.5892 104.751 52.6941C104.751 53.3264 104.854 53.8536 104.854 54.4858C104.849 54.5908 104.745 54.697 104.544 54.697Z" fill="white"/>
<path d="M116.555 55.3292C115.843 55.6749 115.151 56.062 114.483 56.4887H114.277C112.902 55.5228 111.619 54.429 110.444 53.2214H108.987C108.883 53.9599 108.883 54.3809 108.78 55.118C108.78 55.2229 108.677 55.2229 108.573 55.2229H105.879C105.776 55.2229 105.776 55.2229 105.776 55.118C105.879 51.3234 105.983 49.3206 106.087 45.5274C107.506 45.1527 108.975 45.0106 110.438 45.1063C113.75 45.4224 116.964 46.898 116.55 49.5331C116.447 50.2115 116.16 50.8472 115.721 51.3687C115.282 51.8902 114.708 52.2766 114.063 52.4843C114.81 53.4386 115.643 54.3207 116.55 55.1194C116.555 55.2229 116.658 55.2229 116.555 55.3292ZM111.686 48.3736C110.98 48.2853 110.264 48.3946 109.614 48.6897C109.46 49.3837 109.356 50.0881 109.303 50.7975C109.303 50.9024 109.614 50.9024 109.924 51.0087C111.478 51.1136 113.135 50.5877 113.236 49.638C113.24 48.8996 112.825 48.4772 111.686 48.3723V48.3736Z" fill="white"/>
<path d="M124.012 48.1624C122.954 50.6663 122.054 53.2362 121.318 55.8565C121.214 56.3838 121.007 56.9111 120.903 57.3361C120.903 57.441 120.8 57.441 120.695 57.441C119.556 57.1249 118.935 56.9138 117.795 56.5977C117.691 56.5977 117.588 56.4927 117.691 56.3865C117.795 55.4382 118.106 53.9653 118.416 52.4856C118.83 50.4827 119.451 48.27 119.866 46.8994C119.866 46.7944 119.969 46.7944 120.073 46.7944C121.626 47.2155 122.352 47.4267 123.906 47.849C124.012 48.0562 124.115 48.0562 124.012 48.1624Z" fill="white"/>
<path d="M131.472 61.8638C131.472 61.9687 131.368 61.9687 131.265 61.8638C130.229 61.3365 129.711 61.0204 128.676 60.5994C128.572 60.5994 128.469 60.3882 128.469 60.2833C128.035 58.5817 127.689 56.858 127.433 55.1194C127.43 55.0647 127.407 55.0132 127.369 54.9743C127.331 54.9355 127.28 54.912 127.227 54.9082C127.17 54.901 127.113 54.9066 127.059 54.9248C127.005 54.943 126.956 54.9731 126.915 55.0131C126.19 56.5936 125.776 57.4343 125.05 59.0175C125.05 59.1224 124.947 59.1224 124.844 59.1224C123.973 58.6728 123.073 58.2854 122.15 57.963C122.046 57.963 122.046 57.858 122.046 57.7518C123.372 54.8293 124.547 51.8392 125.568 48.7933C125.568 48.6884 125.672 48.6884 125.775 48.7933C127.329 49.4255 128.054 49.7416 129.608 50.3738C129.711 50.4787 129.815 50.585 129.815 50.6899C129.838 52.495 130.011 54.2949 130.333 56.0704C130.343 56.1504 130.38 56.2246 130.436 56.2816C130.492 56.2888 130.549 56.2831 130.603 56.265C130.657 56.2468 130.706 56.2166 130.747 56.1766C131.576 54.3849 132.094 53.4366 132.923 51.645C132.923 51.54 133.027 51.54 133.13 51.645C133.772 52.115 134.468 52.5043 135.202 52.8044L136.445 53.4366C136.549 53.4366 136.549 53.5416 136.445 53.6478C134.476 56.8048 133.44 58.4916 131.472 61.8638Z" fill="white"/>
<path d="M143.593 64.3926L142.763 65.236C141.963 66.0466 140.896 66.5276 139.767 66.5859C138.638 66.6443 137.528 66.276 136.651 65.5521C133.853 63.5492 133.232 60.8092 134.682 58.2804C136.133 55.7515 139.863 55.118 142.659 57.1209C144.938 58.8077 145.663 61.6526 144.627 62.9183C144.571 62.9753 144.534 63.0495 144.524 63.1295C144.42 63.3407 144.212 63.5505 144.006 63.3407C143.079 62.6022 142.555 62.1812 141.52 61.4441C141.46 61.3893 141.424 61.3139 141.416 61.2329C141.552 61.1074 141.656 60.9513 141.72 60.7773C141.785 60.6032 141.808 60.4161 141.788 60.2313C141.768 60.0464 141.705 59.869 141.604 59.7135C141.504 59.558 141.369 59.4287 141.21 59.3363C140.946 59.1697 140.652 59.0592 140.346 59.0115C140.039 58.9638 139.726 58.9799 139.426 59.0587C139.125 59.1376 138.844 59.2776 138.598 59.4703C138.353 59.663 138.149 59.9043 137.998 60.1797C136.962 61.7602 137.169 62.9197 137.998 63.5519C138.722 64.0792 139.345 64.0792 139.656 63.6568C139.538 63.5269 139.397 63.4198 139.242 63.3407C138.93 63.1295 138.62 62.8134 138.412 62.7085C138.309 62.7085 138.309 62.6036 138.412 62.4973C138.724 61.7589 138.93 61.4427 139.242 60.7056C139.255 60.6915 139.271 60.6802 139.289 60.6725C139.306 60.6648 139.325 60.6608 139.345 60.6608C139.364 60.6608 139.383 60.6648 139.401 60.6725C139.419 60.6802 139.435 60.6915 139.448 60.7056C140.587 61.7589 142.246 63.1268 143.488 64.1841C143.593 64.293 143.696 64.293 143.593 64.3926Z" fill="white"/>
<path d="M122.449 73.6201C122.641 74.0707 122.219 75.1482 122.083 75.5598C121.614 77.0947 120.759 78.4787 119.601 79.575C117.865 81.1426 115.745 82.2051 113.463 82.6499C111.028 83.0581 108.555 83.1831 106.092 83.0225C100.878 82.9633 95.1424 83.9237 90.5821 80.6726C89.4658 79.8894 88.5439 78.8536 87.8893 77.6467C87.2346 76.4399 86.8651 75.0951 86.8098 73.7183V73.6201C83.4031 82.0621 84.3846 83.7663 84.3846 83.7663L84.8654 82.5329C84.5979 84.4583 84.7656 86.4203 85.3559 88.2701C85.9461 90.1199 86.9434 91.8089 88.2721 93.2091L88.5224 92.4652C89.0032 95.1877 93.3914 98.6743 93.3914 98.6743V98.1847C94.6707 99.8936 96.3423 101.259 98.2604 102.161V101.417C98.3571 101.456 98.4524 101.495 98.5253 101.534C98.625 101.571 98.7216 101.616 98.814 101.669C98.9107 101.708 99.0061 101.767 99.1028 101.803C99.1995 101.839 99.2948 101.901 99.4101 101.959C99.5253 102.017 99.622 102.057 99.7174 102.116C99.8128 102.176 99.9293 102.233 100.025 102.293C100.12 102.352 100.237 102.41 100.332 102.469C100.427 102.528 100.544 102.586 100.639 102.645C100.735 102.704 100.851 102.762 100.947 102.821C101.042 102.88 101.158 102.938 101.254 102.998C101.349 103.057 101.466 103.115 101.562 103.174C101.659 103.233 101.755 103.291 101.87 103.35L102.158 103.526L102.447 103.702C102.544 103.762 102.621 103.819 102.712 103.879C102.804 103.938 102.886 103.996 102.977 104.055C103.068 104.114 103.151 104.153 103.227 104.211C103.304 104.269 103.381 104.309 103.458 104.368C103.535 104.427 103.59 104.466 103.67 104.503C103.738 104.541 103.802 104.586 103.862 104.637L104.035 104.754C104.082 104.794 104.134 104.827 104.189 104.852C104.227 104.873 104.266 104.912 104.321 104.951C104.361 104.965 104.395 104.992 104.418 105.029C104.437 105.047 104.476 105.068 104.495 105.088C104.535 105.102 104.569 105.13 104.592 105.166C104.592 105.166 104.724 105.068 104.745 105.049C104.766 105.03 104.804 105.01 104.842 104.99C104.88 104.969 104.919 104.93 104.957 104.912C104.996 104.893 105.054 104.852 105.111 104.813L105.284 104.696C105.353 104.658 105.417 104.613 105.476 104.562C105.553 104.523 105.609 104.464 105.688 104.427C105.768 104.391 105.842 104.329 105.919 104.27C106 104.214 106.083 104.161 106.169 104.114C106.246 104.055 106.343 103.997 106.42 103.938C106.496 103.879 106.593 103.821 106.684 103.762L106.973 103.585L107.262 103.409C107.359 103.35 107.454 103.292 107.569 103.233C107.684 103.174 107.781 103.116 107.876 103.057C107.972 102.997 108.088 102.94 108.184 102.88C108.279 102.821 108.396 102.763 108.491 102.704C108.586 102.645 108.703 102.587 108.798 102.528C108.894 102.469 109.01 102.411 109.106 102.352C109.201 102.293 109.318 102.235 109.413 102.176C109.511 102.116 109.614 102.064 109.72 102.02C109.817 101.96 109.932 101.921 110.029 101.864C110.126 101.806 110.221 101.765 110.318 101.729C110.414 101.693 110.51 101.631 110.606 101.595C110.703 101.558 110.798 101.517 110.871 101.478C110.89 101.478 110.89 101.457 110.91 101.457V102.201C112.833 101.307 114.506 99.9406 115.779 98.225V98.7146C115.779 98.7146 120.167 95.2469 120.648 92.5056L120.898 93.2494C122.227 91.8493 123.224 90.1603 123.814 88.3105C124.404 86.4607 124.572 84.4986 124.305 82.5732L124.785 83.8067C124.893 83.7664 125.874 82.0621 122.449 73.6201Z" fill="white"/>
<path opacity="0.29" d="M120.987 89.7602L120.736 89.0164C120.256 91.7389 115.867 95.2254 115.867 95.2254V94.7358C114.591 96.4426 112.918 97.8021 110.998 98.6931V97.9493C110.979 97.9493 110.979 97.9681 110.96 97.9681C110.863 98.0071 110.768 98.0461 110.695 98.0852C110.595 98.1219 110.499 98.1669 110.406 98.2196C110.31 98.2586 110.214 98.3178 110.118 98.3542C110.021 98.3905 109.906 98.4524 109.81 98.5115C109.715 98.5707 109.598 98.6097 109.503 98.6676C109.408 98.7254 109.291 98.7846 109.194 98.8438C109.098 98.903 108.982 98.9608 108.887 99.02C108.792 99.0792 108.675 99.137 108.58 99.1962C108.484 99.2554 108.368 99.3132 108.273 99.3724C108.177 99.4316 108.061 99.4894 107.965 99.5486C107.87 99.6078 107.753 99.6657 107.657 99.7248C107.56 99.784 107.465 99.8418 107.349 99.901L107.061 100.077L106.772 100.253C106.675 100.313 106.598 100.37 106.507 100.43C106.416 100.489 106.333 100.547 106.257 100.606C106.176 100.663 106.092 100.715 106.006 100.763C105.929 100.822 105.853 100.861 105.776 100.919C105.699 100.977 105.643 101.018 105.564 101.054C105.496 101.092 105.431 101.137 105.372 101.188L105.198 101.305C105.14 101.344 105.102 101.365 105.045 101.404C104.988 101.443 104.968 101.463 104.929 101.482C104.891 101.5 104.872 101.521 104.833 101.541C104.793 101.561 104.679 101.658 104.679 101.658C104.652 101.626 104.619 101.6 104.582 101.58C104.564 101.56 104.524 101.541 104.506 101.521C104.466 101.506 104.432 101.479 104.409 101.443C104.368 101.405 104.324 101.372 104.276 101.344C104.23 101.305 104.178 101.272 104.123 101.246L103.949 101.129C103.881 101.091 103.817 101.046 103.757 100.995C103.68 100.956 103.625 100.896 103.545 100.86C103.466 100.824 103.392 100.762 103.315 100.704C103.238 100.646 103.141 100.606 103.064 100.548C102.988 100.49 102.891 100.431 102.8 100.372C102.708 100.313 102.626 100.255 102.535 100.196L102.246 100.019L101.957 99.8432C101.86 99.784 101.765 99.7262 101.65 99.667C101.535 99.6078 101.438 99.55 101.343 99.4908C101.247 99.4316 101.131 99.3738 101.035 99.3146C100.94 99.2554 100.823 99.1975 100.728 99.1384C100.633 99.0792 100.516 99.0213 100.421 98.9621C100.325 98.903 100.209 98.8451 100.113 98.786C100.018 98.7268 99.9015 98.6689 99.8061 98.6097C99.7108 98.5505 99.5942 98.5115 99.4989 98.4537C99.4035 98.3959 99.3068 98.3555 99.1916 98.2977C99.0763 98.2398 98.9995 98.1995 98.9028 98.1631C98.8031 98.1264 98.7065 98.0814 98.6141 98.0286C98.5174 97.9896 98.422 97.9506 98.3492 97.9116V98.6555C96.4261 97.7614 94.7527 96.3949 93.4802 94.6793V95.1689C93.4802 95.1689 89.092 91.7025 88.6112 88.9598L88.3609 89.7037C87.0543 88.3245 86.0684 86.6657 85.4757 84.8489C84.883 83.0322 84.6985 81.1037 84.9356 79.2051C83.9542 82.8086 84.4548 83.691 84.4548 83.691L84.9356 82.4576C84.6682 84.3828 84.836 86.3446 85.4263 88.1941C86.0165 90.0437 87.0138 91.7325 88.3423 93.1324L88.5927 92.3886C89.0735 95.1111 93.4616 98.5976 93.4616 98.5976V98.108C94.7409 99.8169 96.4125 101.182 98.3306 102.084V101.34C98.4273 101.379 98.5227 101.418 98.5955 101.457C98.6953 101.494 98.7919 101.539 98.8843 101.592C98.9809 101.631 99.0763 101.69 99.173 101.726C99.2697 101.763 99.3651 101.825 99.4803 101.882C99.5955 101.94 99.6922 101.981 99.7876 102.04C99.883 102.099 99.9995 102.157 100.095 102.216C100.19 102.275 100.307 102.333 100.402 102.392C100.498 102.451 100.614 102.509 100.709 102.568C100.805 102.628 100.921 102.685 101.017 102.745C101.112 102.804 101.229 102.862 101.324 102.921C101.419 102.98 101.536 103.038 101.631 103.097C101.727 103.156 101.823 103.214 101.939 103.273L102.227 103.449L102.516 103.626C102.613 103.685 102.69 103.743 102.781 103.802C102.872 103.861 102.955 103.919 103.046 103.978C103.137 104.037 103.219 104.076 103.296 104.135C103.373 104.195 103.45 104.234 103.527 104.292C103.604 104.349 103.659 104.39 103.739 104.426C103.807 104.464 103.871 104.509 103.931 104.561L104.104 104.678C104.151 104.717 104.203 104.75 104.258 104.776C104.296 104.796 104.335 104.835 104.39 104.874C104.43 104.888 104.464 104.916 104.487 104.952C104.506 104.972 104.545 104.991 104.564 105.011C104.604 105.026 104.638 105.053 104.661 105.089C104.661 105.089 104.793 104.991 104.814 104.972C104.835 104.953 104.872 104.933 104.911 104.913C104.949 104.893 104.988 104.854 105.026 104.835C105.065 104.816 105.123 104.776 105.18 104.737L105.353 104.62C105.422 104.582 105.486 104.536 105.545 104.485C105.622 104.446 105.678 104.387 105.757 104.351C105.837 104.314 105.911 104.253 105.988 104.195C106.068 104.138 106.152 104.085 106.238 104.037C106.315 103.978 106.412 103.92 106.488 103.861C106.565 103.802 106.662 103.744 106.753 103.685L107.042 103.509L107.331 103.332C107.427 103.273 107.523 103.215 107.638 103.156C107.753 103.097 107.85 103.039 107.945 102.98C108.041 102.921 108.157 102.863 108.253 102.804C108.348 102.745 108.465 102.687 108.56 102.628C108.655 102.568 108.772 102.511 108.867 102.451C108.963 102.392 109.079 102.334 109.175 102.275C109.27 102.216 109.386 102.158 109.482 102.099C109.58 102.039 109.683 101.986 109.789 101.942C109.886 101.882 110.001 101.843 110.096 101.784C110.192 101.725 110.288 101.686 110.385 101.65C110.482 101.613 110.577 101.552 110.674 101.515C110.771 101.479 110.866 101.437 110.939 101.398C110.959 101.398 110.959 101.378 110.977 101.378V102.122C112.9 101.228 114.574 99.8612 115.846 98.1457V98.6353C115.846 98.6353 120.234 95.1676 120.715 92.4262L120.966 93.1701C122.294 91.77 123.292 90.081 123.882 88.2312C124.472 86.3814 124.64 84.4193 124.372 82.4939L124.853 83.7274C124.853 83.7274 125.354 82.8463 124.372 79.2414C124.631 81.1407 124.46 83.0748 123.874 84.8972C123.287 86.7196 122.3 88.3826 120.987 89.7602Z" fill="white"/>
<path opacity="0.49" d="M91.0627 90.7206C91.4784 91.2529 91.9285 91.7566 92.4098 92.2284C92.8522 92.6589 93.276 93.0517 93.6986 93.4229C94.5264 94.1479 95.3344 94.768 96.239 95.4406C96.4509 95.6168 96.6814 95.7728 96.9119 95.9504L97.6046 96.479C97.8351 96.6552 98.0854 96.8314 98.3358 97.0278C98.5861 97.2242 98.8549 97.4193 99.1305 97.6345C99.7149 98.1057 100.268 98.6162 100.785 99.1625C101.337 99.733 101.798 100.387 102.152 101.102L102.075 101.18C101.636 100.703 101.153 100.27 100.631 99.8875C100.131 99.5149 99.6113 99.1827 99.092 98.8693C98.5728 98.5559 98.0523 98.2425 97.5331 97.9089C97.0139 97.5753 96.4946 97.2229 95.9741 96.8328C94.889 96.0188 93.8895 95.0934 92.9913 94.0712C92.5427 93.5416 92.1252 92.9855 91.7409 92.406C91.3822 91.8646 91.0975 91.2764 90.8945 90.6573L91.0627 90.7206Z" fill="white"/>
<path opacity="0.49" d="M96.9121 87.4681C97.1491 88.1021 97.4188 88.7231 97.7201 89.3284C98.0088 89.8772 98.2777 90.3857 98.5665 90.8766C99.1241 91.837 99.7016 92.6791 100.356 93.5991C100.51 93.8345 100.683 94.0686 100.837 94.304L101.337 95.029C101.511 95.2832 101.683 95.5186 101.857 95.7728C102.03 96.0271 102.222 96.3216 102.414 96.6149C102.834 97.2418 103.201 97.9037 103.511 98.5936C103.857 99.3095 104.091 100.076 104.204 100.865L104.088 100.925C103.819 100.331 103.49 99.7663 103.107 99.2405C102.741 98.7119 102.356 98.2411 101.972 97.7717C101.588 97.3022 101.177 96.8516 100.78 96.362C100.382 95.8724 99.985 95.3828 99.6248 94.8339C98.8387 93.7215 98.1726 92.5264 97.638 91.2694C97.368 90.6268 97.1432 89.9656 96.9651 89.2907C96.7961 88.6582 96.707 88.0064 96.7002 87.3511L96.9121 87.4681Z" fill="white"/>
<path opacity="0.49" d="M118.678 90.7206C118.262 91.2528 117.812 91.7565 117.331 92.2284C116.888 92.6589 116.465 93.0517 116.042 93.4229C115.214 94.1479 114.406 94.768 113.502 95.4406C113.29 95.6168 113.059 95.7728 112.827 95.9504L112.135 96.479C111.904 96.6552 111.654 96.8314 111.403 97.0278C111.153 97.2242 110.884 97.4193 110.609 97.6345C110.024 98.1057 109.472 98.6162 108.954 99.1625C108.403 99.7331 107.942 100.387 107.589 101.102L107.666 101.18C108.104 100.703 108.588 100.27 109.109 99.8875C109.61 99.5149 110.129 99.1827 110.649 98.8693C111.168 98.5559 111.687 98.2425 112.208 97.9089C112.728 97.5753 113.247 97.2229 113.766 96.8328C114.852 96.0189 115.851 95.0934 116.749 94.0712C117.198 93.5415 117.615 92.9855 118 92.406C118.358 91.8647 118.643 91.2765 118.846 90.6573L118.678 90.7206Z" fill="white"/>
<path opacity="0.49" d="M112.806 87.4681C112.569 88.1021 112.3 88.7231 111.998 89.3284C111.709 89.8772 111.441 90.3857 111.152 90.8766C110.594 91.837 110.017 92.6791 109.362 93.5991C109.209 93.8345 109.035 94.0686 108.882 94.304L108.381 95.029C108.207 95.2832 108.035 95.5186 107.862 95.7728C107.688 96.0271 107.496 96.3216 107.304 96.6149C106.884 97.2418 106.517 97.9037 106.207 98.5936C105.861 99.3095 105.627 100.076 105.515 100.865L105.63 100.925C105.899 100.331 106.228 99.7663 106.611 99.2405C106.977 98.7119 107.362 98.2411 107.746 97.7717C108.131 97.3022 108.541 96.8516 108.939 96.362C109.336 95.8724 109.733 95.3828 110.094 94.8339C110.88 93.7215 111.546 92.5265 112.08 91.2694C112.351 90.6268 112.576 89.9656 112.755 89.2907C112.923 88.6582 113.012 88.0064 113.019 87.3511L112.806 87.4681Z" fill="white"/>
<path opacity="0.49" d="M104.975 85.2944C104.864 85.9683 104.793 86.6484 104.763 87.331C104.743 87.9578 104.724 88.5416 104.743 89.1133C104.763 90.2297 104.858 91.2654 104.955 92.3845C104.973 92.6536 105.013 92.9522 105.032 93.2266L105.128 94.1076C105.147 94.4009 105.187 94.6955 105.205 95.0277C105.224 95.36 105.263 95.7003 105.282 96.0271C105.33 96.7836 105.33 97.5425 105.282 98.299C105.238 99.0982 105.069 99.8851 104.781 100.63H104.666C104.717 99.978 104.711 99.3225 104.646 98.6716C104.588 98.0448 104.493 97.4382 104.381 96.8302C104.27 96.2222 104.151 95.6357 104.034 95.0089C103.918 94.3821 103.842 93.7553 103.769 93.1083C103.638 91.7459 103.651 90.3732 103.808 89.0137C103.888 88.3197 104.017 87.6324 104.193 86.957C104.348 86.3199 104.588 85.7071 104.906 85.1357L104.975 85.2944Z" fill="white"/>
<path d="M120.254 81.5335C120.908 80.6533 121.259 79.5798 121.254 78.4774C118.253 81.0237 118.542 79.9853 113.307 76.6951C109.401 74.247 105.187 77.0866 104.565 77.7914C103.853 77.1054 99.5626 74.2457 95.9254 76.5377C90.6909 79.8481 91.0247 81.1798 88.0167 78.6335C88.0117 79.7358 88.363 80.8094 89.0167 81.6896C87.8868 82.1141 86.6446 82.1141 85.5146 81.6896C85.5146 81.6896 95.2128 93.5992 104.7 83.2566C114.13 93.3248 123.733 81.5335 123.733 81.5335C122.611 81.9575 121.376 81.9575 120.254 81.5335Z" fill="white"/>
<path d="M95.9308 77.303C99.5679 75.0163 103.859 77.8707 104.571 78.5567C105.187 77.8518 109.401 75.011 113.313 77.4591C118.509 80.7304 118.277 81.7635 121.183 79.3005C121.228 79.0221 121.254 78.7407 121.26 78.4585C118.258 81.0048 118.546 79.9664 113.313 76.6762C109.407 74.2281 105.192 77.0676 104.571 77.7738C103.858 77.0878 99.5679 74.2281 95.9308 76.5202C90.6962 79.8507 91.03 81.1824 88.022 78.6361C88.0278 78.9183 88.0535 79.1996 88.0988 79.4781C91.0048 81.9249 90.7359 80.5932 95.9308 77.303Z" fill="white"/>
<g opacity="0.29">
<g opacity="0.29">
<path opacity="0.29" d="M120.871 80.5394C121.111 79.8872 121.241 79.1989 121.257 78.5029C121.202 78.543 121.15 78.588 121.103 78.6374C120.983 79.2768 120.698 79.8721 120.275 80.3619C120.47 80.4342 120.669 80.4936 120.871 80.5394Z" fill="white"/>
<path opacity="0.29" d="M89.023 80.495C88.5973 80.0082 88.311 79.4123 88.1951 78.7719C88.14 78.7319 88.0886 78.6869 88.0415 78.6375C88.0558 79.3335 88.1861 80.0221 88.4269 80.6739C88.6302 80.6316 88.8296 80.5717 89.023 80.495Z" fill="white"/>
<path opacity="0.29" d="M104.706 82.0823C97.4511 89.9956 90.0616 84.864 87.0019 82.0231C86.4986 82.017 86.0021 81.9034 85.5449 81.6895C85.5449 81.6895 95.2432 93.5992 104.731 83.2566C114.16 93.3248 123.763 81.5321 123.763 81.5321C123.309 81.755 122.81 81.8692 122.306 81.8657C119.234 84.6864 111.903 89.7602 104.706 82.0823Z" fill="white"/>
</g>
</g>
<path opacity="0.58" d="M102.38 79.1634C101.924 79.2362 101.474 79.341 101.033 79.4768C100.629 79.5938 100.263 79.7122 99.8976 79.8494C99.1863 80.1036 98.5505 80.378 97.8578 80.6914L97.3386 80.9268L96.7995 81.1811C96.6074 81.2591 96.4339 81.3573 96.2418 81.4353C96.0498 81.5133 95.8379 81.6115 95.6259 81.7043C95.1548 81.8968 94.6727 82.0603 94.1822 82.1939C93.6623 82.3384 93.1231 82.3979 92.5848 82.3701L92.5649 82.2921C92.9945 82.1901 93.4132 82.0459 93.8153 81.8617C94.1972 81.6854 94.5699 81.4892 94.9319 81.2739C95.2975 81.0775 95.6445 80.8623 96.0286 80.6471C96.4127 80.4318 96.7796 80.2556 97.1836 80.0592C98.0224 79.6757 98.9001 79.3866 99.8009 79.197C100.258 79.1027 100.721 79.0371 101.186 79.0006C101.624 78.9754 102.063 79.0016 102.495 79.0786L102.38 79.1634Z" fill="white"/>
<path opacity="0.58" d="M102.415 80.0054C101.991 80.1224 101.664 80.2407 101.337 80.3578C101.01 80.4748 100.721 80.612 100.433 80.7492C99.8749 81.0182 99.3729 81.298 98.8166 81.6114L98.4126 81.8468L97.9888 82.101C97.8351 82.179 97.7 82.2772 97.5463 82.3553C97.3927 82.4333 97.2192 82.5315 97.0457 82.6243C96.6712 82.8232 96.2855 82.9997 95.8907 83.1529C95.4789 83.315 95.0433 83.4059 94.6019 83.4219L94.582 83.3627C94.9265 83.2461 95.256 83.0881 95.5635 82.892C95.8622 82.7188 96.1514 82.5293 96.4298 82.3243C96.7185 82.128 96.9874 81.9329 97.2762 81.7177C97.5649 81.5024 97.8722 81.3262 98.1808 81.15C98.8373 80.7651 99.5345 80.4565 100.259 80.23C100.624 80.1126 100.997 80.0227 101.376 79.9609C101.732 79.8997 102.094 79.8866 102.454 79.9219L102.415 80.0054Z" fill="white"/>
<path opacity="0.58" d="M106.437 79.1634C106.892 79.2363 107.342 79.341 107.784 79.4768C108.188 79.5938 108.553 79.7122 108.919 79.8494C109.63 80.1036 110.266 80.378 110.958 80.6914L111.478 80.9268L112.017 81.1811C112.209 81.2591 112.382 81.3573 112.574 81.4353C112.766 81.5133 112.978 81.6115 113.19 81.7043C113.661 81.8968 114.144 82.0603 114.634 82.1939C115.154 82.3384 115.693 82.3979 116.231 82.3701L116.251 82.2921C115.822 82.19 115.403 82.0458 115.001 81.8617C114.619 81.6854 114.246 81.4892 113.884 81.2739C113.519 81.0775 113.172 80.8623 112.788 80.6471C112.404 80.4318 112.037 80.2556 111.633 80.0592C110.794 79.6757 109.916 79.3866 109.015 79.197C108.558 79.1027 108.095 79.0371 107.63 79.0006C107.192 78.9754 106.753 79.0016 106.321 79.0786L106.437 79.1634Z" fill="white"/>
<path opacity="0.58" d="M106.417 80.0054C106.841 80.1224 107.168 80.2407 107.494 80.3578C107.82 80.4748 108.11 80.612 108.399 80.7492C108.956 81.0182 109.458 81.298 110.014 81.6114L110.418 81.8468L110.842 82.101C110.996 82.179 111.131 82.2772 111.285 82.3553C111.438 82.4333 111.612 82.5315 111.785 82.6243C112.16 82.8232 112.546 82.9997 112.94 83.1529C113.352 83.315 113.788 83.4059 114.229 83.4219L114.248 83.3627C113.903 83.2461 113.574 83.0881 113.266 82.892C112.968 82.7188 112.678 82.5293 112.4 82.3243C112.111 82.128 111.842 81.9329 111.554 81.7177C111.265 81.5024 110.958 81.3262 110.649 81.15C109.992 80.7652 109.295 80.4565 108.571 80.23C108.206 80.1126 107.832 80.0227 107.454 79.9609C107.098 79.8997 106.735 79.8866 106.376 79.9219L106.417 80.0054Z" fill="white"/>
<path d="M95.5913 87.4803L95.9582 87.5395C96.6864 87.4673 97.3943 87.255 98.0443 86.914C98.9577 86.4975 99.8165 85.967 100.601 85.3348C101.374 84.7071 101.761 84.1561 101.761 83.6817C101.766 83.5388 101.724 83.3982 101.641 83.2823C101.559 83.1664 101.44 83.0816 101.305 83.0414C100.996 82.9193 100.667 82.8585 100.336 82.8625C99.0425 82.9008 97.7754 83.2424 96.6337 83.8606C95.3873 84.4739 94.2345 85.2667 93.2111 86.2145C92.6706 86.6304 92.2196 87.1543 91.8861 87.7539C91.5526 88.3536 91.3436 89.0162 91.272 89.7011C91.2627 90.1446 91.3855 90.5806 91.6244 90.9521C91.8597 91.3096 92.1842 91.5974 92.5648 91.786C93.3341 92.1615 94.1789 92.3503 95.0324 92.3375C95.5391 92.3292 96.0446 92.2843 96.545 92.203C97.4545 92.0506 98.3456 91.8008 99.2033 91.4578C100.011 91.1109 100.764 90.644 101.436 90.0723C101.46 90.0587 101.485 90.0487 101.511 90.0427C101.521 90.0414 101.531 90.0424 101.54 90.0457C101.549 90.0489 101.558 90.0543 101.565 90.0615C101.572 90.0686 101.577 90.0773 101.581 90.0869C101.584 90.0965 101.585 90.1067 101.583 90.1167C101.578 90.1711 101.558 90.2228 101.525 90.266C100.663 91.1545 99.6131 91.832 98.4549 92.2474C97.2819 92.726 96.0328 92.9835 94.7688 93.0074C94.1554 93.0546 93.5393 92.9614 92.9661 92.7343C92.393 92.5073 91.8774 92.1524 91.4575 91.6959C91.0536 91.2033 90.8394 90.5786 90.8548 89.9378C90.9132 89.1639 91.1334 88.4114 91.5006 87.7307C91.8679 87.0499 92.3738 86.4565 92.9846 85.9899C94.1366 84.9606 95.4335 84.1119 96.8324 83.4718C98.1354 82.8149 99.5637 82.4541 101.018 82.4146C101.685 82.3718 102.345 82.5785 102.872 82.9957C102.995 83.1054 103.092 83.2407 103.158 83.3924C103.224 83.544 103.256 83.7083 103.254 83.874C103.235 84.1579 103.16 84.435 103.034 84.6891C102.908 84.9432 102.733 85.1691 102.52 85.3537C102.007 85.8636 101.417 86.286 100.772 86.6046C100.112 86.9451 99.4292 87.2386 98.7291 87.483C98.2666 87.6558 97.7896 87.7855 97.3039 87.8704C97.039 87.8901 96.8333 87.9 96.6867 87.9C96.5401 87.9 96.398 87.8951 96.2602 87.8852C95.7507 87.835 95.4959 87.7255 95.4959 87.557C95.5003 87.5058 95.5322 87.4803 95.5913 87.4803Z" fill="#2B262F"/>
<path d="M105.12 88.6854C105.12 88.5563 105.027 88.4917 104.841 88.4917C104.362 88.5704 103.928 88.8251 103.622 89.2073C103.505 89.3266 103.289 89.575 102.976 89.9525C102.649 90.3633 102.35 90.7961 102.081 91.2479L101.714 92.067L101.757 91.9177C101.732 91.9751 101.712 92.0351 101.699 92.0966C101.652 92.1731 101.589 92.2389 101.516 92.2901C101.443 92.3412 101.36 92.3765 101.273 92.3939C101.231 92.4122 101.186 92.4222 101.14 92.4235C101.042 92.4235 101.032 92.3491 101.111 92.2002L101.522 91.1429C101.756 90.5269 101.947 90.0336 102.094 89.6633C101.765 90.0393 101.406 90.3879 101.022 90.7057C100.924 90.7856 100.856 90.7954 100.817 90.7353C100.805 90.7181 100.8 90.6971 100.802 90.6762C100.802 90.6466 100.847 90.5919 100.935 90.5121C101.45 90.0723 101.922 89.5836 102.345 89.0526C102.746 88.1784 103.213 87.3365 103.74 86.5346C104.338 85.5627 105.043 84.6629 105.841 83.8524C106.271 83.3971 106.806 83.059 107.399 82.8691C107.626 82.794 107.864 82.7537 108.103 82.7494C108.324 82.748 108.539 82.8156 108.72 82.9431C108.825 83.02 108.908 83.1241 108.96 83.2446C109.011 83.365 109.03 83.4973 109.014 83.6278C109.002 84.1139 108.849 84.5856 108.573 84.9836C108.142 85.5794 107.616 86.0981 107.017 86.5184C106.375 87.0131 105.68 87.4327 104.945 87.7694C104.828 87.8187 104.76 87.8137 104.74 87.7546C104.721 87.6954 104.77 87.6357 104.887 87.5757C105.569 87.2458 106.21 86.8359 106.797 86.3543C107.347 85.967 107.829 85.4887 108.222 84.9393C108.425 84.6594 108.551 84.3306 108.589 83.9856C108.589 83.7372 108.486 83.613 108.281 83.613C107.861 83.7028 107.475 83.9091 107.164 84.2089C106.272 84.9699 105.472 85.8349 104.78 86.7861C103.987 87.8417 103.275 88.9574 102.65 90.1233C102.882 89.7817 103.132 89.4534 103.4 89.14C103.586 88.8768 103.825 88.6568 104.101 88.4945C104.377 88.3322 104.684 88.2313 105.001 88.1985C105.201 88.1714 105.404 88.2247 105.565 88.3471C105.727 88.4695 105.836 88.6512 105.867 88.8535C105.879 88.9373 105.883 89.0219 105.882 89.1064C105.868 89.2758 105.829 89.4419 105.764 89.5987C105.593 90.0087 105.386 90.4025 105.147 90.7757C104.928 91.0894 104.759 91.4362 104.647 91.8034C104.647 91.9226 104.687 91.9823 104.765 91.9823C104.942 91.9553 105.108 91.8836 105.25 91.7738C106.014 91.252 106.731 90.6637 107.395 90.0157C107.512 89.8964 107.566 89.8767 107.556 89.9566C107.555 90.0393 107.524 90.1188 107.469 90.1798C106.791 90.8948 106.035 91.5297 105.217 92.0724C104.93 92.2851 104.588 92.4092 104.233 92.4302C104.159 92.4308 104.085 92.4209 104.013 92.4006C103.854 92.3905 103.706 92.318 103.599 92.1984C103.492 92.0789 103.435 91.9217 103.441 91.7604C103.464 91.3315 103.607 90.9183 103.853 90.5686C103.901 90.4986 104.082 90.265 104.396 89.8678C104.729 89.5401 104.978 89.134 105.12 88.6854Z" fill="#2B262F"/>
<path d="M110.399 89.9969C110.918 89.709 111.177 89.4162 111.177 89.1185C111.177 88.8208 111.001 88.6719 110.648 88.6719C110.463 88.6761 110.282 88.7221 110.118 88.8065C109.652 89.0382 109.245 89.3745 108.926 89.7897C108.513 90.2281 108.264 90.7989 108.221 91.4039C108.221 91.5935 108.272 91.7795 108.368 91.9419C108.434 92.026 108.519 92.0919 108.617 92.1335C108.714 92.1751 108.821 92.1911 108.926 92.18C109.565 92.1104 110.172 91.857 110.674 91.4496C111.319 91.0023 111.928 90.5039 112.495 89.9592C112.613 89.8399 112.672 89.835 112.672 89.9444C112.671 89.9792 112.663 90.0134 112.648 90.0444C112.632 90.0754 112.61 90.1024 112.583 90.1233L111.849 90.808C111.732 90.9174 111.491 91.1209 111.128 91.4187C110.853 91.6475 110.558 91.8518 110.248 92.0293C109.706 92.3516 109.097 92.5405 108.47 92.5808C108.063 92.6023 107.66 92.4869 107.324 92.2526C107.188 92.1391 107.08 91.9949 107.008 91.8314C106.937 91.668 106.904 91.4898 106.912 91.3111C106.917 90.8849 107.021 90.4659 107.215 90.088C107.409 89.7101 107.688 89.3839 108.029 89.136C108.676 88.558 109.503 88.2306 110.364 88.2119C110.562 88.1855 110.764 88.2039 110.955 88.2657C111.145 88.3276 111.32 88.4314 111.466 88.5697C111.543 88.6838 111.584 88.8188 111.584 88.9571C111.577 89.1101 111.531 89.2587 111.452 89.3889C111.206 89.756 110.858 90.041 110.453 90.2081C110.028 90.4231 109.562 90.5403 109.087 90.5511C108.92 90.5511 108.827 90.5363 108.808 90.5067C108.799 90.4771 108.808 90.4569 108.852 90.4475C108.903 90.4254 108.958 90.4153 109.013 90.4179C109.501 90.3905 109.976 90.2462 110.399 89.9969Z" fill="#2B262F"/>
<path d="M118.886 86.2171C118.887 86.2252 118.886 86.2333 118.884 86.241C118.881 86.2487 118.877 86.2557 118.871 86.2614C118.866 86.2672 118.859 86.2715 118.851 86.2741C118.844 86.2767 118.836 86.2775 118.828 86.2763C118.799 86.2763 118.779 86.2508 118.77 86.2023C118.723 85.9925 118.603 85.8069 118.432 85.6804C118.309 85.5695 118.154 85.5016 117.991 85.4868C117.873 85.4769 117.766 85.4719 117.667 85.4719C117.318 85.4713 116.975 85.5751 116.683 85.7706C115.897 86.3643 115.217 87.0899 114.671 87.916C115.053 87.9179 115.428 88.0203 115.759 88.2133C116.121 88.4913 116.268 88.6948 116.2 88.824C116.18 88.8742 116.092 88.8545 115.935 88.7648C115.713 88.6504 115.464 88.5988 115.216 88.6155C114.833 88.6247 114.452 88.6849 114.085 88.7944C113.436 89.7408 112.932 90.7804 112.587 91.8787C112.465 92.2444 112.396 92.6258 112.381 93.0113C112.363 93.2515 112.431 93.4904 112.572 93.6839C112.61 93.7229 112.616 93.7484 112.587 93.7579C112.568 93.7653 112.548 93.7703 112.528 93.7727C112.523 93.7723 112.517 93.7707 112.512 93.7682C112.507 93.7657 112.503 93.7622 112.499 93.7579C112.308 93.5802 112.159 93.3601 112.065 93.1147C111.971 92.8693 111.934 92.6052 111.956 92.3428C112.071 91.2734 112.374 90.2337 112.851 89.2733C112.833 89.2834 112.813 89.2887 112.793 89.2887C112.772 89.2887 112.752 89.2834 112.734 89.2733C112.699 89.2319 112.669 89.1868 112.645 89.1387C112.612 89.0572 112.588 88.9725 112.572 88.8859C112.552 88.7824 112.552 88.676 112.572 88.5725C112.613 88.4442 112.69 88.3304 112.792 88.2442C112.997 88.0959 113.233 87.9991 113.482 87.9618C113.97 86.8991 114.688 85.962 115.583 85.2204C115.991 84.9266 116.477 84.7657 116.977 84.759C117.415 84.7466 117.846 84.8716 118.212 85.1169C118.406 85.2278 118.57 85.3868 118.688 85.5791C118.806 85.7715 118.874 85.9909 118.886 86.2171Z" fill="#2B262F"/>
<path d="M90.9547 115.34L68.9092 95.9706L67.1621 97.8618L87.3215 119.283C87.8397 119.756 88.5199 120.004 89.2161 119.973C89.9123 119.942 90.5688 119.635 91.0446 119.118C91.5203 118.601 91.7775 117.915 91.7607 117.208C91.7439 116.5 91.4544 115.828 90.9547 115.335V115.34Z" fill="white"/>
<path d="M52.6824 78.0174L48.3962 82.6566C47.6876 83.4234 47.1348 84.3244 46.7691 85.3082C46.4035 86.292 46.2323 87.3392 46.2652 88.3902C46.2982 89.4412 46.5347 90.4753 46.9612 91.4335C47.3878 92.3916 47.996 93.255 48.7512 93.9745L60.4071 101.776C61.6685 102.622 63.1839 102.988 64.6852 102.808C66.1865 102.628 67.5768 101.915 68.6099 100.794L71.5755 97.5848C72.5945 96.482 73.2039 95.0535 73.2991 93.5444C73.3943 92.0352 72.9694 90.5394 72.0974 89.3136L63.8018 77.6595C63.0497 76.9394 62.1649 76.3773 61.1982 76.0054C60.2316 75.6335 59.2021 75.4592 58.1689 75.4924C57.1357 75.5256 56.1192 75.7658 55.1776 76.1991C54.2361 76.6324 53.3881 77.2503 52.6824 78.0174ZM65.2654 98.6501L65.2072 98.7133C65.0845 98.8439 64.9192 98.9246 64.7421 98.9402C64.5651 98.9558 64.3885 98.9052 64.2455 98.798L50.6982 88.5927C50.6216 88.5345 50.557 88.4615 50.5082 88.3779C50.4593 88.2944 50.4272 88.2019 50.4135 88.1057C50.3998 88.0095 50.405 87.9116 50.4286 87.8174C50.4522 87.7232 50.4939 87.6347 50.5512 87.5569C50.6085 87.4791 50.6804 87.4135 50.7626 87.3639C50.8449 87.3143 50.936 87.2816 51.0307 87.2678C51.1254 87.2539 51.2219 87.2591 51.3146 87.2831C51.4073 87.3071 51.4945 87.3494 51.5711 87.4076L65.1184 97.613C65.2724 97.7323 65.3736 97.9086 65.4 98.1035C65.4263 98.2983 65.3755 98.4958 65.2588 98.6528L65.2654 98.6501ZM67.2588 95.4218C67.3363 95.4862 67.3999 95.5661 67.4457 95.6566C67.4914 95.747 67.5183 95.8461 67.5248 95.9476C67.5312 96.049 67.517 96.1507 67.4831 96.2464C67.4492 96.3421 67.3963 96.4296 67.3276 96.5036C67.2589 96.5776 67.176 96.6365 67.084 96.6765C66.9919 96.7166 66.8928 96.7369 66.7926 96.7364C66.6925 96.7359 66.5936 96.7144 66.502 96.6734C66.4104 96.6324 66.3281 96.5726 66.2602 96.4979L54.0334 84.8479C53.9081 84.71 53.839 84.529 53.8399 84.3413C53.8409 84.1537 53.9119 83.9734 54.0386 83.8369C54.1654 83.7003 54.3384 83.6177 54.5227 83.6056C54.7071 83.5935 54.8891 83.6529 55.0321 83.7718L67.2588 95.4218ZM58.6693 79.9624L69.5675 93.0504C69.6836 93.1876 69.7455 93.3635 69.7414 93.5444C69.7372 93.7252 69.6673 93.8981 69.545 94.0296L69.4867 94.0928C69.3394 94.2191 69.149 94.2813 68.9569 94.2659C68.7647 94.2505 68.5863 94.1589 68.4602 94.0108L57.562 80.9228C57.4377 80.7732 57.3764 80.5799 57.3915 80.3847C57.4067 80.1896 57.4969 80.0083 57.6428 79.8803C57.7895 79.7548 57.9793 79.6935 58.1705 79.7099C58.3617 79.7263 58.5387 79.819 58.6626 79.9678L58.6693 79.9624Z" fill="white"/>
<path d="M140.263 105.608L135.775 100.423C132.357 103.517 129.665 105.922 129.665 105.922C129.665 105.922 124.583 105.115 123.025 105.61C123.467 105.392 123.862 105.086 124.185 104.71C124.508 104.335 124.753 103.897 124.906 103.422L132.396 96.487C136.821 94.6074 140.884 91.949 144.398 88.6343C150.319 82.9189 151.266 77.4025 154.239 76.7461C157.213 76.0897 159.833 79.9919 162.584 83.4111C165.335 86.8304 168.066 90.9358 167.997 91.5209C167.942 91.989 166.707 92.9803 166.258 93.2884C156.606 100.918 146.958 110.79 144.978 110.252C142.998 109.714 140.704 106.188 140.263 105.608Z" fill="white"/>
<path d="M153.306 79.3365C153.084 80.1803 153.577 81.0478 154.407 81.2741C155.238 81.5003 156.093 80.9997 156.315 80.1558C156.538 79.312 156.045 78.4445 155.214 78.2183C154.383 77.992 153.529 78.4927 153.306 79.3365Z" fill="#2B262F"/>
<path d="M121.746 108.241C121.606 108.774 121.917 109.322 122.442 109.465C122.967 109.608 123.507 109.291 123.647 108.758C123.788 108.225 123.477 107.677 122.952 107.534C122.427 107.391 121.887 107.707 121.746 108.241Z" fill="#2B262F"/>
<path d="M155.741 100.34C157.483 98.8828 163.556 93.9905 166.402 91.7778C163.422 94.386 157.078 99.5795 155.915 100.646C154.752 101.713 148.263 106.81 145.117 109.084C147.913 106.742 153.999 101.796 155.741 100.34Z" fill="#2B262F"/>
<path d="M62.5779 125.364C60.5487 127.266 59.9116 131.837 59.8467 133.884C60.4321 133.355 61.7196 132.339 62.1884 132.497C62.7739 132.695 63.1633 138.838 64.5302 142.206C66.0052 145.611 67.907 148.808 70.1886 151.718C70.9688 152.312 74.0907 150.726 75.847 150.331C77.6034 149.935 78.7742 150.529 80.92 150.331C83.0657 150.133 87.7493 146.968 89.3096 145.576C90.8699 144.184 95.9428 138.043 98.2846 135.867C100.626 133.69 110.382 125.168 110.967 125.168C112.824 125.745 114.713 126.208 116.625 126.555C118.967 126.752 120.722 124.97 121.504 124.573C122.285 124.176 122.869 124.771 123.845 124.573C125.419 124.019 126.783 122.98 127.747 121.6C127.861 121.397 127.925 121.17 127.935 120.937C127.946 120.703 127.901 120.471 127.806 120.258C127.711 120.046 127.567 119.859 127.388 119.714C127.208 119.568 126.997 119.468 126.771 119.421C126.41 119.414 126.063 119.273 125.796 119.025C126.467 118.904 127.122 118.704 127.747 118.43C128.996 117.954 128.789 116.515 128.528 115.854C127.743 115.854 126.96 115.788 126.186 115.656C125.406 115.498 125.08 115.194 125.015 115.062H127.161C127.941 115.062 129.892 115.459 130.088 113.278C130.284 111.098 125.991 111.495 125.21 111.297C124.698 111.149 124.23 110.877 123.844 110.505C126.575 110.702 132.51 112.253 131.844 108.523C131.453 106.344 125.145 106.079 121.893 106.145L123.259 104.758C123.73 104.109 124.062 103.367 124.233 102.579C125.459 101.977 126.578 101.174 127.545 100.201C128.52 99.0119 128.325 96.2383 127.35 96.2383C126.375 96.2383 125.79 98.0219 124.619 98.8142C123.448 99.6065 121.888 99.211 120.717 99.8042C119.546 100.397 119.157 101.389 118.375 102.182C117.594 102.976 115.644 103.767 114.473 104.758C112.942 106.356 111.63 108.155 110.571 110.108C109.985 111.297 107.644 112.881 106.669 113.874C105.694 114.867 99.4502 117.44 97.6938 118.431C95.3379 119.873 93.1175 121.531 91.0606 123.385C89.8897 124.575 84.8167 126.159 82.8657 126.159H77.9875C78.8325 124.97 80.2511 122.393 79.1584 121.602C72.9185 119.221 65.1143 122.986 62.5779 125.364Z" fill="white"/>
<path d="M71.749 147.533C71.2304 147.877 70.6061 148.018 69.9927 147.93C71.749 149.713 74.6749 148.327 76.4313 147.533C78.1876 146.739 82.0896 146.146 84.8208 144.957C87.552 143.768 91.4541 139.41 95.7469 134.653C100.04 129.897 105.502 127.322 106.087 126.728C106.556 126.252 106.282 125.87 106.087 125.737C106.743 125.749 107.398 125.682 108.039 125.539C108.506 125.38 108.754 124.549 108.819 124.152C107.79 123.923 106.725 123.923 105.697 124.152C105.384 124.47 105.432 125.341 105.502 125.737C103.942 126.794 100.469 129.099 99.0635 129.897C97.3072 130.888 91.4541 137.625 86.7718 141.39C82.0896 145.155 75.6458 145.749 74.6749 146.145C73.6638 146.525 72.6853 146.99 71.749 147.533Z" fill="#2B262F"/>
<path d="M69.6043 146.191C71.0097 146.983 74.7422 144.011 76.4336 142.424C75.3822 142.377 74.3522 142.106 73.4108 141.628C72.4694 141.151 71.6377 140.477 70.9699 139.651C75.4433 138.826 79.8718 137.768 84.2378 136.48C89.5054 134.697 91.2578 131.328 91.2578 130.734C91.2578 130.139 81.6973 131.328 83.6483 130.337C85.5994 129.346 93.5995 128.158 96.3307 127.959C99.0619 127.76 101.793 124.788 102.964 123.798C104.135 122.808 107.257 122.015 108.037 121.619C108.288 121.443 108.491 121.206 108.627 120.929C108.764 120.652 108.829 120.344 108.817 120.035C110.125 121.038 111.572 121.839 113.11 122.413C115.061 123.007 118.768 122.215 119.354 122.215C119.821 122.215 119.159 121.423 118.768 121.026C119.905 121.426 121.084 121.692 122.281 121.818C124.232 122.016 124.037 120.629 124.037 120.035C124.037 119.44 121.892 119.638 121.695 119.44C121.499 119.242 122.281 118.053 122.281 117.657C122.281 117.26 120.525 117.854 120.33 117.657C120.135 117.459 120.721 116.864 121.305 116.667C121.889 116.469 123.256 117.062 124.036 117.261C124.414 117.346 124.807 117.336 125.181 117.233C125.555 117.129 125.898 116.935 126.182 116.667C126.376 116.27 124.816 116.27 124.425 116.072C123.668 115.681 122.949 115.217 122.28 114.685C121.889 114.288 120.718 115.082 120.134 115.082C119.55 115.082 120.329 113.893 120.134 113.695C119.939 113.497 118.574 113.497 118.378 113.298C118.221 113.14 120.264 112.44 121.305 112.109V112.704C123.386 112.902 127.587 113.219 127.743 112.902C127.938 112.506 125.402 111.912 124.817 111.912C124.233 111.912 122.672 110.722 121.695 110.525C120.719 110.327 118.574 110.327 118.384 109.93C118.195 109.533 118.97 109.336 119.164 108.939C119.359 108.542 118.189 108.344 118.384 107.949C118.579 107.553 128.725 108.346 129.31 108.346C129.779 108.346 130.286 109.006 130.481 109.336C130.522 109.09 130.509 108.837 130.441 108.597C130.373 108.357 130.254 108.136 130.09 107.949C129.505 107.157 121.31 106.562 120.335 106.364C119.335 106.203 118.354 105.938 117.408 105.572C117.252 105.413 118.903 105.374 119.75 105.374C119.617 105.308 119.437 105.057 119.75 104.582C120.342 103.901 121.075 103.36 121.895 102.997C122.676 102.601 122.286 101.413 123.261 100.818C124.236 100.224 124.432 100.621 125.407 100.026C126.382 99.4316 126.383 98.4416 126.187 98.2425C125.991 98.0434 125.016 99.2338 124.431 99.6293C123.845 100.025 122.48 99.827 121.309 100.224C120.138 100.621 120.138 102.007 119.358 102.8C118.578 103.592 117.992 103.592 116.43 104.583C114.869 105.575 112.919 109.537 111.943 110.725C110.587 112.143 109.082 113.406 107.455 114.492C106.285 115.284 105.895 116.87 104.724 117.662C103.036 118.602 101.274 119.397 99.4566 120.04C97.5056 120.832 95.9453 123.211 92.4366 124.994C88.9279 126.778 80.3397 128.165 77.6018 128.957C74.864 129.749 74.0905 132.524 72.1395 131.335C70.1885 130.146 78.3833 125.589 75.8482 124.004C73.313 122.42 69.9951 123.212 67.0678 126.382C64.1406 129.553 66.6771 138.27 67.6533 138.27C68.6295 138.27 68.2387 136.487 69.4096 137.081C70.5805 137.676 68.2387 140.848 68.044 141.836C67.8493 142.825 67.848 145.201 69.6043 146.191Z" fill="#2B262F"/>
<path d="M141.916 126.568C143.864 128.395 144.476 132.784 144.538 134.75C143.977 134.243 142.74 133.271 142.287 133.419C141.725 133.608 141.35 139.507 140.035 142.742C138.619 146.01 136.794 149.08 134.604 151.874C133.855 152.444 130.857 150.923 129.174 150.542C127.49 150.161 126.363 150.732 124.302 150.542C122.241 150.352 117.744 147.314 116.245 145.969C114.746 144.623 109.875 138.739 107.626 136.646L103.296 133.417L111.405 126.302C113.04 127.164 114.839 127.655 116.679 127.741C118.852 127.741 120.719 126.632 120.852 125.983L122.428 127.328H127.111C126.894 126.411 126.978 125.448 127.35 124.584C127.722 123.72 128.362 123.004 129.172 122.543C137.069 120.387 139.48 124.285 141.916 126.568Z" fill="white"/>
<path d="M133.108 147.856C133.606 148.186 134.205 148.321 134.794 148.236C133.108 149.949 130.297 148.617 128.611 147.856C126.925 147.094 123.18 146.524 120.555 145.382C117.93 144.24 114.185 140.054 110.063 135.489L106.841 132.174C107.238 131.401 108.116 130.096 108.494 131.055C108.871 132.014 115.444 138.722 118.682 141.957C123.179 145.573 129.362 146.143 130.298 146.524C131.269 146.889 132.209 147.334 133.108 147.856Z" fill="#2B262F"/>
<path d="M135.169 146.57C133.819 147.331 130.235 144.477 128.611 142.954C129.621 142.909 130.61 142.649 131.514 142.19C132.418 141.731 133.216 141.084 133.858 140.291C129.562 139.499 125.309 138.483 121.117 137.247C116.059 135.534 114.372 132.299 114.372 131.732C114.372 131.164 122.585 132.302 121.68 131.351C120.223 129.822 114.975 128.526 112.353 128.342L118.1 128.662L120.616 127.183C122.9 130.379 124.864 129.254 127.487 130.015C130.109 130.777 130.859 133.44 132.733 132.302C134.607 131.164 126.738 126.787 129.174 125.262C131.61 123.736 134.795 124.5 137.605 127.549C140.414 130.597 137.98 138.965 137.043 138.965C136.107 138.965 136.482 137.252 135.357 137.823C134.232 138.393 136.482 141.438 136.668 142.389C136.855 143.34 136.855 145.616 135.169 146.57Z" fill="#2B262F"/>
<path d="M94.1175 106.59C94.6791 107.732 96.9282 109.254 97.8646 110.206C98.3944 110.744 101.772 114.582 101.772 114.582C101.772 114.582 98.1507 115.152 92.483 119.892C91.4183 121.189 89.9429 122.069 88.3095 122.382C86.0578 122.572 84.3743 120.859 83.6259 120.48C82.8776 120.101 82.3146 120.67 81.3742 120.48C79.863 119.948 78.5531 118.95 77.6271 117.626C77.519 117.43 77.4577 117.212 77.4482 116.988C77.4387 116.765 77.4813 116.542 77.5726 116.338C77.6638 116.134 77.8011 115.955 77.9732 115.815C78.1454 115.675 78.3477 115.578 78.5636 115.533C78.9109 115.525 79.2437 115.39 79.5 115.152C78.8556 115.036 78.2266 114.845 77.6258 114.582C76.4271 114.124 76.6271 112.743 76.8761 112.108C77.6305 112.108 78.3837 112.045 79.1278 111.918C79.8775 111.766 80.1874 111.474 80.2523 111.348H78.1914C77.4417 111.348 75.5688 111.729 75.3807 109.636C75.1926 107.543 79.3159 107.923 80.0643 107.732C80.5555 107.59 81.0054 107.328 81.3755 106.971C78.753 107.161 73.0535 108.644 73.6933 105.068C74.0681 102.975 80.1265 102.72 83.2484 102.781L81.9371 101.449C81.4843 100.826 81.1653 100.113 81.0007 99.3562C79.8242 98.7771 78.7501 98.0044 77.8218 97.0695C76.8853 95.9275 77.0721 93.2642 78.0086 93.2642C78.945 93.2642 79.5079 94.9765 80.6311 95.7379C81.7543 96.4992 83.2537 96.1185 84.3782 96.6889C85.5028 97.2592 85.8776 98.2115 86.63 98.9755C87.3823 99.7396 89.2525 100.498 90.377 101.449C91.8447 102.985 93.1028 104.714 94.1175 106.59Z" fill="white"/>
<path d="M97.1161 110.796C98.2406 111.558 97.1161 114.376 95.8048 116.124C94.6198 117.195 93.2101 117.977 91.6829 118.411C89.8086 118.981 86.2523 118.222 85.6867 118.222C85.2364 118.222 85.8748 117.46 86.2483 117.08C85.1567 117.464 84.0252 117.719 82.8761 117.841C81.0019 118.032 81.1899 116.699 81.1899 116.129C81.1899 115.558 83.2509 115.748 83.4416 115.558C83.6324 115.369 82.88 114.226 82.88 113.846C82.88 113.465 84.5662 114.035 84.7529 113.846C84.9397 113.656 84.3781 113.084 83.8165 112.895C83.2549 112.705 81.9422 113.276 81.1939 113.465C80.8306 113.547 80.4532 113.538 80.0941 113.438C79.7351 113.339 79.4053 113.152 79.1329 112.895C78.9462 112.514 80.4442 112.514 80.8191 112.325C81.547 111.95 82.2372 111.504 82.88 110.993C83.2549 110.612 84.3794 111.374 84.941 111.374C85.5026 111.374 84.7542 110.231 84.941 110.042C85.1278 109.852 86.4404 109.852 86.6271 109.661C86.7768 109.509 84.8165 108.837 83.8165 108.519V109.09C81.8178 109.279 77.7832 109.585 77.6336 109.279C77.4455 108.899 79.8853 108.328 80.4442 108.328C81.0032 108.328 82.5052 107.186 83.4416 106.997C84.3781 106.807 86.4391 106.807 86.6205 106.426C86.802 106.046 86.0589 105.856 85.8708 105.475C85.6827 105.095 86.8073 104.905 86.6205 104.524C86.4338 104.144 76.6865 104.905 76.1289 104.905C75.6799 104.905 75.1925 105.538 75.0044 105.856C74.9647 105.62 74.9777 105.377 75.0426 105.147C75.1075 104.916 75.2225 104.703 75.3792 104.524C75.9408 103.763 83.8099 103.193 84.7476 103.002C85.7078 102.847 86.6497 102.591 87.5583 102.24C87.708 102.088 86.1225 102.051 85.3066 102.051C85.4311 101.987 85.6059 101.747 85.3066 101.289C84.7377 100.634 84.0341 100.115 83.2456 99.7665C82.4959 99.3858 82.8708 98.2438 81.9343 97.6735C80.9979 97.1032 80.8098 97.4825 79.8734 96.9122C78.9369 96.3418 78.9369 95.3895 79.1237 95.1998C79.3104 95.0102 80.2482 96.1508 80.8098 96.5315C81.3714 96.9122 82.684 96.7211 83.8072 97.1018C84.9304 97.4825 84.9317 98.8142 85.6814 99.5755C86.4311 100.337 86.9927 100.337 88.4921 101.288C89.9914 102.239 91.8643 106.044 92.8008 107.186C94.105 108.546 95.5521 109.757 97.1161 110.796Z" fill="#2B262F"/>
</g>
<defs>
<filter id="filter0_d_1109_1075" x="0" y="-10" width="212" height="249" filterUnits="userSpaceOnUse" color-interpolation-filters="sRGB">
<feFlood flood-opacity="0" result="BackgroundImageFix"/>
<feColorMatrix in="SourceAlpha" type="matrix" values="0 0 0 0 0 0 0 0 0 0 0 0 0 0 0 0 0 0 127 0" result="hardAlpha"/>
<feOffset dy="10"/>
<feGaussianBlur stdDeviation="10"/>
<feComposite in2="hardAlpha" operator="out"/>
<feColorMatrix type="matrix" values="0 0 0 0 0 0 0 0 0 0 0 0 0 0 0 0 0 0 0.34 0"/>
<feBlend mode="normal" in2="BackgroundImageFix" result="effect1_dropShadow_1109_1075"/>
<feBlend mode="normal" in="SourceGraphic" in2="effect1_dropShadow_1109_1075" result="shape"/>
</filter>
<clipPath id="clip0_1109_1075">
<rect width="125" height="107" fill="white" transform="translate(43 45)"/>
</clipPath>
</defs>
</svg>
